HIERARCHY
ROOT Hips
{
	OFFSET 0.000000 0.000000 0.000000 
	CHANNELS 6 Xposition Yposition Zposition Yrotation Zrotation Xrotation 
	JOINT Lumbar
	{
		OFFSET 0.000000 0.000000 0.000000 
		CHANNELS 3 Zrotation Xrotation Yrotation
		JOINT Neck
		{
			OFFSET 0.000000 0.445665 0.000000 
			CHANNELS 3 Zrotation Xrotation Yrotation
			End Site
			{
				OFFSET 0.000000 0.227535 0.000000 
			}
		}
		JOINT RightShoulder
		{
			OFFSET 0.019635 0.377685 0.194865 
			CHANNELS 3 Zrotation Xrotation Yrotation
			JOINT RightElbow
			{
				OFFSET 0.000000 -0.243375 0.000000 
				CHANNELS 2 Zrotation Yrotation
				JOINT RightWrist
				{
					OFFSET 0.000000 -0.264825 0.000000 
					CHANNELS 2 Zrotation Xrotation
					End Site
					{
						OFFSET 0.006600 -0.176220 0.000990 
					}
				}
			}
		}
		JOINT LeftShoulder
		{
			OFFSET 0.019635 0.377685 -0.194865 
			CHANNELS 3 Zrotation Xrotation Yrotation
			JOINT LeftElbow
			{
				OFFSET 0.000000 -0.243375 0.000000 
				CHANNELS 2 Zrotation Yrotation
				JOINT LeftWrist
				{
					OFFSET 0.000000 -0.264825 0.000000 
					CHANNELS 2 Zrotation Xrotation
					End Site
					{
						OFFSET 0.006600 -0.176220 -0.000990 
					}
				}
			}
		}
	}
	JOINT RightHip
	{
		OFFSET 0.052140 -0.069960 0.075570 
		CHANNELS 3 Zrotation Xrotation Yrotation
		JOINT RightKnee
		{
			OFFSET 0.000000 -0.402270 0.000000 
			CHANNELS 1 Zrotation
			JOINT RightAnkle
			{
				OFFSET 0.000000 -0.404085 0.000000 
				CHANNELS 3 Zrotation Xrotation Yrotation
				End Site
				{
					OFFSET 0.204105 -0.089430 0.008415 
				}
			}
		}
	}
	JOINT LeftHip
	{
		OFFSET 0.052140 -0.069960 -0.075570 
		CHANNELS 3 Zrotation Xrotation Yrotation
		JOINT LeftKnee
		{
			OFFSET 0.000000 -0.402270 0.000000 
			CHANNELS 1 Zrotation
			JOINT LeftAnkle
			{
				OFFSET 0.000000 -0.404085 0.000000 
				CHANNELS 3 Zrotation Xrotation Yrotation
				End Site
				{
					OFFSET 0.204105 -0.089430 -0.008415 
				}
			}
		}
	}
}
MOTION
Frames: 28
Frame Time: 0.02
-0.01007 -0.01111 0.0762 9.79471 -24.97666 -2.30707 37.12317 6.93045 -4.09085 -8.70591 4.73738 -0.81665 -7.66453 -28.97726 21.63038 49.13605 86.10723 4.1084 3.06815 -27.11767 28.52229 -11.23935 56.05065 -91.51578 6.90765 -0.01429 46.30052 -0.01443 -9.92153 -25.68913 -6.37878 -2.54758 -1.94383 48.71145 13.30197 6.22018 -35.66367 -7.46473 3.60926 2.57237
-0.01176 -0.01105 0.07245 9.57557 -25.09523 -2.27924 36.93255 7.02971 -3.7576 -8.54453 5.09628 -0.81669 -6.99009 -28.23789 21.54735 47.7534 86.10048 3.85435 3.1262 -27.05798 28.57618 -11.44254 56.32398 -90.8821 6.73358 0.08889 46.49901 -0.13671 -9.1871 -25.59185 -6.39851 -2.60645 -1.97525 48.73673 13.12125 6.10065 -35.37345 -7.38675 3.52787 2.52359
-0.01353 -0.01104 0.06828 9.37908 -25.21511 -2.28431 36.73182 7.12403 -3.45526 -8.38536 5.49372 -0.81674 -6.43109 -27.35209 21.13058 46.37025 86.07148 3.57444 3.14701 -27.02003 28.61227 -11.53392 56.63761 -91.36113 6.77298 -0.02818 46.69008 -0.24618 -8.39659 -25.47328 -6.41982 -2.67944 -2.01379 48.73342 12.87397 5.84356 -34.9581 -7.33017 3.47395 2.49121
-0.01529 -0.01101 0.06427 9.17555 -25.33138 -2.27681 36.52881 7.21744 -3.14373 -8.2198 5.87768 -0.8168 -5.79776 -26.52849 20.88169 44.94958 86.0536 3.31127 3.17855 -26.96082 28.66473 -11.69349 56.92351 -91.2934 6.70893 -0.03678 46.88287 -0.36679 -7.65139 -25.36597 -6.44061 -2.74368 -2.04788 48.7441 12.65385 5.65219 -34.60683 -7.26489 3.40987 2.4528
-0.01694 -0.01096 0.06037 8.95918 -25.45784 -2.25937 36.35429 7.32401 -2.81218 -8.07955 6.24781 -0.81681 -5.25332 -25.71729 20.56354 43.6759 86.0304 3.02669 3.22993 -26.95323 28.68422 -11.78132 57.25242 -91.32527 6.65955 -0.06567 47.07807 -0.46469 -6.81879 -25.24946 -6.46029 -2.81836 -2.08737 48.74598 12.44754 5.44888 -34.22297 -7.1943 3.33476 2.4077
-0.01884 -0.01097 0.05616 8.77437 -25.56644 -2.27015 36.11835 7.40172 -2.52933 -7.88445 6.65293 -0.81692 -4.55389 -24.84813 20.30903 42.10582 86.01353 2.77973 3.23442 -26.83943 28.76748 -11.99235 57.49868 -91.44038 6.63364 -0.11033 47.27146 -0.60665 -6.15393 -25.14839 -6.48306 -2.87467 -2.11734 48.76387 12.19603 5.23705 -33.87783 -7.1403 3.28964 2.38067
-0.02135 -0.01114 0.05125 8.67397 -25.59937 -2.35393 35.71351 7.40527 -2.37511 -7.55817 7.16635 -0.8173 -3.382 -23.85124 20.33379 39.65636 86.01786 2.65508 3.10707 -26.45649 29.0294 -12.55926 57.52382 -91.53764 6.63881 -0.14543 47.42162 -0.87759 -5.99773 -25.09118 -6.51021 -2.87346 -2.11727 48.79923 11.84036 5.03819 -33.67374 -7.1257 3.32036 2.39961
-0.02414 -0.01137 0.04607 8.60405 -25.61893 -2.46438 35.24733 7.37931 -2.26827 -7.1729 7.70928 -0.81778 -2.05433 -22.80317 20.43131 36.92269 86.02961 2.56728 2.93612 -25.9597 29.3556 -13.25577 57.46099 -91.68663 6.65885 -0.19076 47.57765 -1.19301 -6.00853 -25.05156 -6.54105 -2.8536 -2.10759 48.85803 11.44086 4.83584 -33.51281 -7.1273 3.38041 2.43619
-0.02686 -0.01158 0.04101 8.51809 -25.66204 -2.56066 34.81082 7.36397 -2.13885 -6.80056 8.22498 -0.8182 -0.80778 -21.78081 20.48048 34.35786 86.03945 2.45468 2.79416 -25.49638 29.65391 -13.90025 57.42708 -91.80659 6.66189 -0.23317 47.75757 -1.48489 -5.9214 -25.00646 -6.5727 -2.84452 -2.10367 48.92865 11.05822 4.63166 -33.32989 -7.12244 3.42756 2.46484
-0.02932 -0.01177 0.03591 8.4417 -25.63243 -2.66693 34.36748 7.35982 -2.01582 -6.48584 8.80138 -0.81865 0.48202 -20.74026 20.5789 31.61815 86.04301 2.37452 2.61448 -25.11344 29.94828 -14.51199 57.44129 -91.98687 6.71512 -0.27598 47.82573 -1.78871 -5.92007 -24.94886 -6.59409 -2.8269 -2.09451 48.90405 10.6852 4.43273 -33.15176 -7.11481 3.47441 2.494
-0.03238 -0.01202 0.03085 8.35291 -25.74983 -2.75805 33.92252 7.32596 -1.88921 -6.03842 9.25661 -0.81907 1.71566 -19.73067 20.60086 29.1843 86.06084 2.23666 2.50051 -24.53265 30.26356 -15.224 57.33385 -92.04012 6.66493 -0.31721 48.12737 -2.08046 -5.78693 -24.92318 -6.6375 -2.82162 -2.09343 49.08284 10.28382 4.22936 -32.97659 -7.11613 3.5278 2.5257
-0.03702 -0.01245 0.02597 8.21672 -26.28713 -2.80273 33.50074 7.21266 -1.74981 -5.22821 9.3809 -0.81943 2.7952 -18.7913 20.35502 27.58533 86.12392 1.92353 2.60545 -23.46233 30.64483 -16.18208 56.91456 -91.72273 6.32181 -0.35425 49.07934 -2.30992 -5.19289 -24.9697 -6.74256 -2.86199 -2.12108 49.82502 9.80449 3.96656 -32.79057 -7.14156 3.59805 2.56347
-0.04224 -0.01295 0.02115 8.06765 -26.97061 -2.8307 33.07749 7.07136 -1.60296 -4.28921 9.38041 -0.81976 3.80594 -17.89055 20.03721 26.31733 86.19987 1.55223 2.77363 -22.19313 31.04058 -17.2364 56.37734 -91.27138 5.87355 -0.38784 50.26471 -2.52888 -4.47051 -25.05023 -6.86938 -2.91414 -2.15647 50.76935 9.3002 3.70819 -32.60807 -7.17475 3.67275 2.60258
-0.0472 -0.01344 0.0163 7.92851 -27.58041 -2.8649 32.64621 6.94595 -1.45418 -3.41532 9.42919 -0.8201 4.8233 -16.99142 19.78139 24.95163 86.26494 1.21254 2.89496 -20.99364 31.41403 -18.24732 55.88948 -90.88115 5.4751 -0.42016 51.33881 -2.76488 -3.84482 -25.12266 -6.985 -2.95611 -2.18556 51.61697 8.81475 3.48109 -32.43038 -7.20202 3.74115 2.6387
-0.05217 -0.01383 0.01146 7.7745 -28.22123 -2.90587 32.24801 6.80617 -1.33121 -2.50866 9.50872 -0.82044 5.95072 -16.01047 19.41026 23.35947 86.3512 0.85328 3.08952 -19.87005 31.8559 -19.26363 55.40758 -90.49376 5.06961 -0.46476 52.43554 -2.95169 -3.06578 -25.1638 -7.10605 -3.01744 -2.22584 52.48778 8.29691 3.11688 -32.22778 -7.23977 3.82806 2.68515
-0.05724 -0.01444 0.00662 7.64643 -28.8312 -2.92836 31.78325 6.69005 -1.14998 -1.64414 9.4963 -0.82077 6.82977 -15.20854 19.25382 22.31375 86.39667 0.51923 3.14929 -18.55193 32.15809 -20.28695 54.89754 -90.06611 4.6525 -0.48302 53.53987 -3.23658 -2.56992 -25.27902 -7.22118 -3.04194 -2.24506 53.35557 7.84012 3.03483 -32.07642 -7.25759 3.87786 2.71062
-0.06254 -0.01563 0.00178 7.60633 -29.3294 -2.90425 31.11942 6.64687 -0.82788 -0.89643 9.24139 -0.82106 7.04521 -14.90288 19.76842 22.76272 86.3223 0.28002 2.8034 -16.66736 32.06907 -21.33116 54.24303 -89.57437 4.23923 -0.42746 54.61316 -3.80555 -2.91772 -25.58211 -7.31245 -2.95835 -2.20199 54.18533 7.56776 3.77046 -32.07379 -7.21603 3.81728 2.67374
-0.0679 -0.01701 -0.00307 7.59004 -29.78941 -2.86191 30.39213 6.62881 -0.44408 -0.20196 8.90117 -0.82133 7.011 -14.77413 20.48729 23.7392 86.20667 0.0661 2.32342 -14.60995 31.83922 -22.37403 53.58216 -89.04482 3.81679 -0.34588 55.68488 -4.47124 -3.54846 -25.96056 -7.39744 -2.83818 -2.13802 55.00059 7.35625 4.78278 -32.12092 -7.15449 3.72031 2.61635
-0.07318 -0.01829 -0.00793 7.55422 -30.26148 -2.82756 29.70418 6.59851 -0.07595 0.49663 8.61301 -0.8216 7.0871 -14.55731 21.07594 24.43176 86.11317 -0.16699 1.91666 -12.68213 31.67459 -23.40009 52.98787 -88.52135 3.39064 -0.27735 56.75422 -5.08561 -4.02894 -26.3093 -7.48666 -2.73697 -2.08499 55.81027 7.11054 5.64216 -32.13974 -7.10365 3.64432 2.57096
-0.07871 -0.01966 -0.01274 7.55529 -30.76278 -2.79393 28.97082 6.56941 0.24147 1.28577 8.26641 -0.82188 7.1753 -14.37452 21.8308 25.32206 86.00785 -0.3703 1.45957 -10.52789 31.50462 -24.50207 52.1222 -88.03541 2.99045 -0.20326 57.84557 -5.73132 -4.59649 -26.63801 -7.57064 -2.6257 -2.02573 56.68117 6.89097 6.61547 -32.18265 -7.04638 3.54977 2.5144
-0.08373 -0.02088 -0.01764 7.48464 -31.19 -2.75462 28.31824 6.54576 0.67746 1.87038 8.02036 -0.82215 7.17846 -14.16192 22.27531 25.92171 85.91467 -0.6281 1.0755 -8.81171 31.31305 -25.44565 51.81971 -87.46999 2.53993 -0.13496 58.88665 -6.33411 -5.05158 -27.02845 -7.66401 -2.52731 -1.97489 57.41499 6.63246 7.41844 -32.18727 -6.99753 3.48515 2.47613
-0.08745 -0.02169 -0.02281 7.21698 -31.43962 -2.70459 27.89408 6.51762 1.43904 1.91543 8.09535 -0.82245 7.01938 -13.82862 21.93181 25.58757 85.88712 -1.04864 0.91837 -8.30769 31.08829 -25.93995 53.09279 -86.64448 1.91463 -0.08593 59.79527 -6.80117 -5.12613 -27.54866 -7.78263 -2.4668 -1.94807 57.80137 6.24517 7.67122 -32.07312 -6.97787 3.51225 2.49389
-0.09064 -0.02236 -0.02807 6.87566 -31.61146 -2.64939 27.55551 6.49694 2.31466 1.75326 8.2709 -0.82275 6.78107 -13.4588 21.249 24.94213 85.86936 -1.52317 0.84045 -8.25931 30.84815 -26.27655 54.92955 -85.75055 1.2469 -0.0442 60.64991 -7.22067 -5.07797 -28.13209 -7.91123 -2.42164 -1.93115 58.04341 5.8176 7.74471 -31.91895 -6.96715 3.57066 2.53065
-0.09401 -0.02308 -0.03329 6.56291 -31.80731 -2.59639 27.18418 6.48153 3.13016 1.67766 8.38632 -0.82303 6.57234 -13.10143 20.64139 24.43812 85.83217 -1.96908 0.73084 -8.02892 30.62007 -26.69304 56.49695 -84.92097 0.6237 -0.00122 61.52561 -7.65757 -5.08778 -28.70132 -8.03664 -2.37381 -1.91262 58.33333 5.41317 7.90889 -31.78355 -6.95162 3.61459 2.55836
-0.09765 -0.02384 -0.03849 6.26941 -32.05196 -2.54368 26.7839 6.42962 3.9855 1.63356 8.5597 -0.82335 6.38372 -12.76495 20.36643 23.95024 85.85541 -2.4326 0.59836 -7.68501 30.3653 -27.07533 58.12135 -83.94842 -0.10764 0.05127 62.42077 -8.11507 -5.10025 -29.21296 -8.15621 -2.30676 -1.88146 58.70054 4.9917 8.04607 -31.64708 -6.93856 3.6583 2.5871
-0.10058 -0.02448 -0.04376 5.9209 -32.17423 -2.48899 26.46611 6.45619 4.78082 1.47386 8.63725 -0.82361 6.13549 -12.37751 19.32537 23.35128 85.75739 -2.87108 0.53411 -7.69001 30.16476 -27.49077 59.75895 -83.25936 -0.62221 0.08204 63.25666 -8.51782 -5.07164 -29.85721 -8.29031 -2.28358 -1.87888 58.86903 4.5938 8.19049 -31.50313 -6.92275 3.71037 2.61847
-0.10182 -0.02485 -0.04914 5.41337 -32.00055 -2.43366 26.34676 6.68896 5.41081 1.05774 8.42767 -0.82367 5.76209 -11.82743 16.166 22.49019 85.30721 -3.23994 0.63878 -8.53151 30.11438 -28.04047 61.31227 -83.35766 -0.54045 0.05296 63.99189 -8.77517 -4.98412 -30.86366 -8.46285 -2.38001 -1.95557 58.55409 4.28468 8.42414 -31.34435 -6.89691 3.77801 2.65245
-0.10235 -0.02511 -0.05458 4.85735 -31.70204 -2.3759 26.30942 7.0018 5.97102 0.53036 8.11858 -0.82366 5.32911 -11.23234 12.26344 21.53161 84.7377 -3.57943 0.8099 -9.7121 30.12027 -28.62732 62.85581 -83.74569 -0.23705 0.00244 64.65981 -8.98027 -4.85519 -31.99886 -8.64944 -2.51955 -2.0601 58.03824 3.99825 8.66688 -31.17994 -6.86803 3.85296 2.68844
